<svg fill="#FFFFFF" xmlns:dc="http://purl.org/dc/elements/1.1/" xmlns:cc="http://creativecommons.org/ns#" xmlns:rdf="http://www.w3.org/1999/02/22-rdf-syntax-ns#" xmlns:svg="http://www.w3.org/2000/svg" xmlns="http://www.w3.org/2000/svg" xmlns:sodipodi="http://sodipodi.sourceforge.net/DTD/sodipodi-0.dtd" xmlns:inkscape="http://www.inkscape.org/namespaces/inkscape" version="1.1" x="0px" y="0px" viewBox="0 0 100 100"><g transform="translate(0,-952.36218)"><path style="font-size:medium;font-style:normal;font-variant:normal;font-weight:normal;font-stretch:normal;text-indent:0;text-align:start;text-decoration:none;line-height:normal;letter-spacing:normal;word-spacing:normal;text-transform:none;direction:ltr;block-progression:tb;writing-mode:lr-tb;text-anchor:start;baseline-shift:baseline;opacity:1;color:#000000;fill:#FFFFFF;fill-opacity:1;stroke:none;stroke-width:3.33333324999999990;marker:none;visibility:visible;display:inline;overflow:visible;enable-background:accumulate;font-family:Sans;-inkscape-font-specification:Sans" d="M 50 6 C 25.72316 6 6 25.72316 6 50 C 6 74.2768 25.72316 94 50 94 C 74.27684 94 94 74.2768 94 50 C 94 25.72316 74.27684 6 50 6 z M 50 10 C 72.115076 10 90 27.88492 90 50 C 90 72.1151 72.115076 90 50 90 C 27.884924 90 10 72.1151 10 50 C 10 27.88492 27.884924 10 50 10 z M 59.84375 25.96875 A 2.0001999 2.0001999 0 0 0 58.65625 26.5 L 34.65625 48.5 A 2.0001999 2.0001999 0 0 0 34.65625 51.46875 L 58.65625 73.46875 A 2.0022756 2.0022756 0 1 0 61.34375 70.5 L 38.96875 50 L 61.34375 29.46875 A 2.0001999 2.0001999 0 0 0 59.84375 25.96875 z " transform="translate(0,952.36218)"></path></g></svg>