<svg fill="#FFFFFF" xmlns="http://www.w3.org/2000/svg" xmlns:xlink="http://www.w3.org/1999/xlink" version="1.1" x="0px" y="0px" viewBox="0 0 30 30" xml:space="preserve"><g transform="translate(-330 -80)"><g xmlns="http://www.w3.org/2000/svg" xmlns:xlink="http://www.w3.org/1999/xlink"><path d="M356.264,89c-0.018-0.599,0.026-1.259,0.13-2h-2.787c0.104,0.741,0.148,1.401,0.131,2H356.264z"></path><path d="M353.439,86h3.122c0.116-0.613,0.255-1.264,0.439-2c1-4-2-4-2-4s-3,0-2,4C353.185,84.736,353.323,85.387,353.439,86z"></path><path d="M357,92c-0.321-0.643-0.527-1.291-0.643-2h-2.715c-0.115,0.709-0.321,1.357-0.643,2c-0.103,0.205-0.204,0.397-0.306,0.585    C353.522,94.215,354,96.051,354,98c0,2.494-0.766,4.812-2.073,6.732C352.45,106.619,353,108,353,108h4c0,0,2-5,2-9S358,94,357,92z    "></path><path d="M352.111,93.668C350.43,89.748,346.537,87,342,87c-6.075,0-11,4.925-11,11s4.925,11,11,11    c4.116,0,7.697-2.264,9.584-5.611C352.482,101.796,353,99.959,353,98C353,96.462,352.682,94.998,352.111,93.668z M336.5,98    c-0.828,0-1.5-0.672-1.5-1.5s0.672-1.5,1.5-1.5s1.5,0.672,1.5,1.5S337.328,98,336.5,98z M340.5,92c-0.828,0-1.5-0.672-1.5-1.5    s0.672-1.5,1.5-1.5s1.5,0.672,1.5,1.5S341.328,92,340.5,92z M344.5,95c-0.828,0-1.5-0.672-1.5-1.5s0.672-1.5,1.5-1.5    s1.5,0.672,1.5,1.5S345.328,95,344.5,95z"></path></g></g></svg>