<svg fill="#FFFFFF" xmlns="http://www.w3.org/2000/svg" xmlns:xlink="http://www.w3.org/1999/xlink" version="1.1" x="0px" y="0px" viewBox="0 0 30 30" xml:space="preserve"><g transform="translate(-450 -320)"><path xmlns="http://www.w3.org/2000/svg" xmlns:xlink="http://www.w3.org/1999/xlink" d="M470,347v-11h2c2.201,0,3-1.795,3-3v-5c0-0.553-0.447-1-1-1c-0.552,0-1,0.447-1,1v4.988   c-0.012,0.461-0.194,1.012-1,1.012h-2v-11c0-0.553-0.447-1-1-1c-0.552,0-1,0.447-1,1v15h-2c-0.805,0-0.988-0.551-1-1v-5   c0-0.553-0.447-1-1-1c-0.552,0-1,0.447-1,1v5c0,1.205,0.799,3,3,3h2v7h-9v-3h2v-3.301c0-0.275-0.224-0.5-0.5-0.5   s-0.5,0.225-0.5,0.5V343h-1v-7c0-0.277-0.224-0.5-0.5-0.5s-0.5,0.223-0.5,0.5v5h-1v-2.301c0-0.275-0.224-0.5-0.5-0.5   s-0.5,0.225-0.5,0.5V342h2v5h-7v1h28v-1H470z"></path></g></svg>