<svg fill="#FFFFFF" xmlns="http://www.w3.org/2000/svg" xmlns:xlink="http://www.w3.org/1999/xlink" version="1.1" x="0px" y="0px" viewBox="0 0 100 100" style="enable-background:new 0 0 100 100;" xml:space="preserve"><style type="text/css">
	.st0{fill:#FFFFFF;}
	.st1{fill:none;stroke:#FFFFFF;stroke-linecap:round;stroke-linejoin:round;stroke-miterlimit:10;}
	.st2{fill:none;stroke:#FFFFFF;stroke-width:2;stroke-linecap:round;stroke-linejoin:round;stroke-miterlimit:10;}
</style><g><g><path class="st0" d="M25.5,3c-1.2,2.7-3.3,9.2-1.1,17.9c2-1.9,4.3-3.6,6.8-5c2.8-1.6,5.8-2.8,9-3.7c-1.2-1.7-5.7-7.5-12.7-10.1    C26.8,1.8,25.9,2.2,25.5,3z"></path><path class="st0" d="M59.9,12.3c3.1,0.9,6.1,2.1,8.8,3.7c2.6,1.5,4.9,3.2,7,5.1c2.3-8.8,0.2-15.4-1-18.1c-0.4-0.8-1.3-1.2-2.1-0.9    C65.6,4.8,61,10.7,59.9,12.3z"></path><path class="st0" d="M82.6,52.5c0.2,0.1,0.4,0.2,0.6,0.2c0.5,0,1-0.4,1-1.1C83.3,21,61,15.5,52.9,14.5c1.4,0.8,2.4,2.2,2.4,4.3    c0,1.1-0.2,2.4-0.7,3.9C51.7,31,53,44.9,58,51.1c5,6.2,3.2,17.3-7.9,17.3c-11.1,0-12.9-11.1-7.9-17.3c5-6.2,6.3-20.1,3.3-28.4    c-0.5-1.5-0.7-2.8-0.7-3.9c0.1-2.1,1.1-3.5,2.5-4.3c-8,0.9-30.5,6.3-31.4,37.2c0,0.6,0.5,1.1,1,1.1c0.2,0,0.4-0.1,0.6-0.2    c1.4-1,3.3-2.6,3.8-3.8c0,0-1.3,8.3-0.7,15.3c0.1,0.6,0.5,0.9,1,0.9c0.3,0,0.7-0.2,0.9-0.5c1.2-2.1,2.8-4.7,4.3-5.5    c0,0-2.5,7.9,3.6,14.9c4.8,5.5,8.5,12.8,10,17.3c0.2,0.5,0.6,0.7,1,0.7c0.4,0,0.8-0.2,1-0.7l2-5.2c0,0,0.5,6.9,2.2,11.3    c0.2,0.4,0.6,0.6,1,0.6c0.4,0,0.7-0.2,0.9-0.6l1.8-3.6l1.8,3.6c0.2,0.4,0.6,0.6,0.9,0.6c0.4,0,0.8-0.2,1-0.6    c1.7-4.5,2.2-11.4,2.2-11.4l2,5.2c0.2,0.4,0.6,0.7,1,0.7c0.4,0,0.8-0.2,1-0.7c1.6-4.5,5.3-11.8,10-17.3c6.1-7,3.6-14.9,3.6-14.9    c1.4,0.9,3.1,3.5,4.3,5.5c0.2,0.4,0.5,0.5,0.9,0.5c0.5,0,1-0.3,1-0.9c0.5-6.9-0.7-15.3-0.7-15.3C79.2,49.9,81.1,51.5,82.6,52.5z     M33.5,36.3c0-2,1.6-3.7,3.7-3.7s3.7,1.6,3.7,3.7c0,2-1.6,3.7-3.7,3.7S33.5,38.3,33.5,36.3z M62.9,39.9c-2,0-3.7-1.6-3.7-3.7    c0-2,1.6-3.7,3.7-3.7s3.7,1.6,3.7,3.7C66.6,38.3,64.9,39.9,62.9,39.9z"></path><ellipse class="st0" cx="50" cy="60" rx="5.9" ry="4.2"></ellipse></g></g></svg>