<svg fill="#FFFFFF" xmlns="http://www.w3.org/2000/svg" xmlns:xlink="http://www.w3.org/1999/xlink" version="1.1" x="0px" y="0px" viewBox="0 0 90 90" enable-background="new 0 0 90 90" xml:space="preserve"><path d="M83.154,53.624c-0.704-2.534-2.629-5.115-3.286-5.585s-0.563-0.142-1.173-2.723c-0.61-2.581-1.737-8.918-2.395-10.748  c-0.657-1.831-1.549-4.084-4.506-5.069c-0.657-0.188-0.328-0.047,0.61-0.142c0.938-0.094,5.397,0.095,6.478-0.704  c1.079-0.798,0.61-0.845-0.376-1.924c-0.985-1.08-2.206-1.361-2.628-2.253c-0.423-0.892-2.112-1.878-2.723-1.831  s-2.44-0.516-3.098-0.938s-2.206-0.563-2.957-0.704s-7.886-3.004-24.689-2.44c-2.253,0.141-5.82,0.892-7.698,0.704  s-4.506,0.094-5.21,0.234s-1.408,0.563-2.675,0c-1.268-0.563-8.684,0.517-9.81,0.657s-1.924,0.047-2.535,0.751  s-2.019,0.657-3.333,1.08c-1.314,0.422-1.455,1.877-0.845,2.3c0.61,0.422,2.206,0.657,2.3,1.032  c0.094,0.376,1.924,0.938,2.347,0.938s1.126,0.423,0.375,0.563s-5.21,1.174-5.961,4.412c-0.751,3.239-0.939,4.647-1.596,6.149  s-0.61,1.924-0.61,2.675S6.27,42.876,6.27,44.284s-0.281,2.676-0.845,4.084c-0.563,1.408-1.971,13.8,2.019,20.229  c0.516,1.174,0.375,2.395,4.6,1.784c4.225-0.61,6.243-0.094,6.008-0.657c-0.235-0.563-0.751-1.596,0.282-1.689  c1.032-0.095,6.007-2.066,7.322-4.037c0,0-2.019-5.258-2.957-7.651c-0.939-2.394-1.08-5.163-0.751-6.994  c0.329-1.83,0.329-4.459,0.094-4.975c-0.234-0.517-0.61-1.174-0.469-2.863s0.188-10.232-0.704-12.768  c-0.262-1.034,0.751-0.422,1.126-0.375c0,0,11.265,0.61,12.438,0.281c1.173-0.328,0.892-0.679,1.784-0.504  c0.892,0.176,3.238,0.457,2.206,0.692c-1.033,0.234-3.145,1.502-3.286,3.285c-0.141,1.784-1.408,18.024-1.314,22.014  c0.094,3.99-0.469,8.824,0.329,9.2c0.798,0.375,19.761,2.112,22.671,1.877c2.91-0.234,8.965,0.517,9.903,1.784  c0,0-0.751,3.614-0.234,3.755c0.516,0.141,7.65,0.892,8.824,0.61c1.173-0.282,1.408-0.392,2.206,0.062  c0.798,0.453,6.431-1.096,7.04-2.222C85.172,68.081,83.858,56.159,83.154,53.624z M70.668,29.404  c-0.422,0.047-0.375,0.798-0.375,0.798c0.279,0.926-0.47,4.882-0.986,6.243c-0.516,1.361-0.938,1.032-0.892,3.238  s-0.375,16.851-0.61,18.775c-0.234,1.924-0.845-0.563-1.126-1.361c-0.282-0.798-1.033-0.845-1.549-2.44  c-0.517-1.597-1.784-1.878-1.831-2.77s-1.173-1.784-1.689-1.972s-1.596-0.892-1.831-1.736c-0.234-0.845-1.596-2.159-2.628-3.18  c-1.033-1.021-1.831-3.251-2.206-4.377c-0.376-1.127-1.221-0.846-1.314-1.455c-0.094-0.61-0.798-1.784-1.502-2.301  c-0.704-0.516-1.408-2.394-2.065-3.332s-1.408-0.657-1.596-1.314s-1.314-1.689-2.44-2.581c-1.127-0.893-0.47-0.752,0.281-0.393  s10.045,0.768,11.688,0.659c1.643-0.109,1.878,0.625,2.91,0.625s3.004,0.188,3.521-0.329c0.516-0.516,1.268-0.281,2.065-0.188  s0.938-0.281,1.643-0.61C68.838,29.076,71.091,29.357,70.668,29.404z"></path></svg>