<svg fill="#FFFFFF" xmlns="http://www.w3.org/2000/svg" xmlns:xlink="http://www.w3.org/1999/xlink" version="1.1" x="0px" y="0px" viewBox="0 0 48 48" enable-background="new 0 0 48 48" xml:space="preserve"><g><g><path fill="#FFFFFF" d="M10.3,36.5c-7.6-6.2-8.7-17.4-2.5-24.9C13.9,4,25.1,2.9,32.7,9.1c5.7,4.6,7.7,12,5.8,18.6l2.7,0.8    c2.2-7.6-0.2-16.2-6.7-21.6C25.7-0.2,12.8,1.1,5.6,9.9c-7.2,8.8-5.8,21.7,2.9,28.8C15.1,44,24,44.7,31,41l-1.3-2.5    C23.6,41.7,16,41.1,10.3,36.5z"></path></g><g><path fill="#FFFFFF" d="M44.3,32.4c-0.6,2.2-1.7,4.4-3.3,6.3c-1.6,1.9-3.5,3.4-5.5,4.5l1.3,2.5c2.4-1.2,4.6-3,6.4-5.2    c1.8-2.2,3.1-4.7,3.8-7.3L44.3,32.4z"></path></g><g><path fill="#FFFFFF" d="M31.8,10.2c-7-5.7-17.2-4.6-22.9,2.3c-5.7,7-4.6,17.2,2.3,22.9c5.2,4.2,12.2,4.7,17.8,1.8l-7.8-14.7    l15.9,4.7C38.9,21.2,37,14.4,31.8,10.2z M14.4,17.1C14,18,12.9,18.4,12,18c-0.9-0.4-1.3-1.5-0.9-2.3c0.4-0.9,1.5-1.3,2.3-0.9    C14.4,15.2,14.8,16.2,14.4,17.1z M18.7,29.9c-0.5,1-1.6,1.4-2.6,1c-1-0.5-1.4-1.6-1-2.6c0.5-1,1.6-1.4,2.6-1    C18.7,27.7,19.1,28.9,18.7,29.9z M20.8,36.6C20.8,36.6,20.9,36.6,20.8,36.6C20.9,36.6,20.9,36.6,20.8,36.6    C20.9,36.6,20.8,36.6,20.8,36.6z M27.3,15.2C26.9,16,25.9,16.4,25,16c-0.9-0.4-1.2-1.4-0.8-2.3c0.4-0.9,1.4-1.2,2.3-0.8    C27.3,13.3,27.7,14.3,27.3,15.2z"></path></g><g><path fill="#FFFFFF" d="M39.9,37.8c1.4-1.8,2.4-3.8,3-5.8L27,27.3L34.8,42C36.7,41,38.5,39.6,39.9,37.8z M37.5,34.7    c-0.4,0.9-1.4,1.2-2.3,0.8c-0.9-0.4-1.2-1.4-0.8-2.3c0.4-0.9,1.4-1.2,2.3-0.8C37.5,32.9,37.9,33.9,37.5,34.7z"></path></g></g></svg>