<svg fill="#FFFFFF" xmlns="http://www.w3.org/2000/svg" xmlns:xlink="http://www.w3.org/1999/xlink" version="1.1" x="0px" y="0px" viewBox="0 0 24 24" style="enable-background:new 0 0 24 24;" xml:space="preserve"><g><g><path d="M23.5,22.5h-23C0.224,22.5,0,22.276,0,22V2c0-0.276,0.224-0.5,0.5-0.5h23C23.776,1.5,24,1.724,24,2v20    C24,22.276,23.776,22.5,23.5,22.5z M1,21.5h22v-19H1V21.5z"></path><path d="M10.5,20.5C5.813,20.5,2,16.687,2,12s3.813-8.5,8.5-8.5S19,7.313,19,12S15.187,20.5,10.5,20.5z M10.5,4.5    C6.364,4.5,3,7.864,3,12s3.364,7.5,7.5,7.5S18,16.136,18,12S14.636,4.5,10.5,4.5z"></path><path d="M10.5,17.5c-0.276,0-0.5-0.224-0.5-0.5s0.224-0.5,0.5-0.5c2.481,0,4.5-2.019,4.5-4.5c0-0.276,0.224-0.5,0.5-0.5    S16,11.724,16,12C16,15.032,13.532,17.5,10.5,17.5z"></path><path d="M10.5,14.5C9.121,14.5,8,13.379,8,12s1.121-2.5,2.5-2.5S13,10.621,13,12S11.879,14.5,10.5,14.5z M10.5,10.5    C9.673,10.5,9,11.173,9,12s0.673,1.5,1.5,1.5S12,12.827,12,12S11.327,10.5,10.5,10.5z"></path><path d="M20.5,19.5c-0.827,0-1.5-0.673-1.5-1.5v-1c0-0.827,0.673-1.5,1.5-1.5S22,16.173,22,17v1C22,18.827,21.327,19.5,20.5,19.5z     M20.5,16.5c-0.275,0-0.5,0.225-0.5,0.5v1c0,0.275,0.225,0.5,0.5,0.5S21,18.275,21,18v-1C21,16.725,20.775,16.5,20.5,16.5z"></path><path d="M20.5,16.5c-0.276,0-0.5-0.224-0.5-0.5V4c0-0.276,0.224-0.5,0.5-0.5S21,3.724,21,4v12C21,16.276,20.776,16.5,20.5,16.5z"></path><path d="M20.5,20.5c-0.276,0-0.5-0.224-0.5-0.5v-1c0-0.276,0.224-0.5,0.5-0.5S21,18.724,21,19v1C21,20.276,20.776,20.5,20.5,20.5z    "></path><circle cx="3" cy="19.5" r="1"></circle></g><path d="M10.5,12.5c-0.13,0-0.26-0.05-0.351-0.141C10.049,12.259,10,12.13,10,12s0.05-0.25,0.14-0.351   c0.2-0.189,0.521-0.189,0.71-0.01c0.101,0.11,0.15,0.23,0.15,0.36s-0.05,0.25-0.141,0.35C10.76,12.45,10.63,12.5,10.5,12.5z"></path></g></svg>