<svg fill="#FFFFFF" xmlns="http://www.w3.org/2000/svg" xmlns:xlink="http://www.w3.org/1999/xlink" version="1.1" x="0px" y="0px" viewBox="1999.4 522.8 406.5 428" style="enable-background:new 1999.4 522.8 406.5 428;" xml:space="preserve"><path d="M2233.9,950.8c-1.2,0-2.5-0.3-3.7-1c-3.6-2-4.9-6.6-2.8-10.2l50.7-89.8c2-3.6,6.6-4.9,10.2-2.8c3.6,2,4.9,6.6,2.8,10.2  l-50.7,89.8C2239.1,949.4,2236.6,950.8,2233.9,950.8z M2183.7,949.9c-1.2,0-2.5-0.3-3.7-1c-3.6-2-4.9-6.6-2.8-10.2l50.7-89.8  c2-3.6,6.6-4.9,10.2-2.8c3.6,2,4.9,6.6,2.8,10.2l-50.7,89.8C2188.8,948.5,2186.3,949.9,2183.7,949.9z M2111.9,948.8  c-0.9,0-1.8-0.2-2.6-0.5c-3.5-1.3-5.5-5-4.7-8.6l20.2-94.6l-31.7-0.1c-2.5,0-4.9-1.3-6.3-3.4s-1.6-4.8-0.5-7.1l40.3-89.8  c1.2-2.7,3.9-4.4,6.8-4.4c0,0,0,0,0,0l56.9,0.4c2.8,0,5.3,1.5,6.6,4s1.2,5.4-0.4,7.7l-31,46.9h22.6c2.7,0,5.3,1.5,6.6,3.9  s1.2,5.3-0.3,7.7l-10.3,16c0,0,0,0.1-0.1,0.1l-65.8,118.1C2117.1,947.4,2114.5,948.8,2111.9,948.8z M2104.7,830.1l29.4,0.1  c2.3,0,4.4,1,5.8,2.8c1.4,1.8,2,4.1,1.5,6.3l-11.7,54.7l41.4-74.4c0.1-0.1,0.1-0.3,0.2-0.4c0.1-0.2,0.2-0.4,0.3-0.5l2.9-4.5h-22.8  c-2.8,0-5.3-1.5-6.6-3.9c-1.3-2.4-1.2-5.4,0.3-7.7l31-47l-38.2-0.2L2104.7,830.1z M2318.5,834.4c-0.4,0-0.8,0-1.2,0  c-0.2,0-0.4,0-0.6,0h-5.6c-4.1,0-7.5-3.4-7.5-7.5s3.4-7.5,7.5-7.5h5c0.3,0,0.6,0,0.9,0c0.2,0,0.5,0,0.7,0c0.2,0,0.5,0,0.7,0  c39.9,0,72.4-32.5,72.4-72.4s-32.5-72.4-72.4-72.4c-0.1,0-0.3,0-0.4,0c-0.2,0-0.4,0-0.6,0c0,0-0.1,0-0.1,0c-2.2,0-4.3-1-5.7-2.6  c-1.5-1.7-2.1-4-1.7-6.2c0.7-4.2,1.1-8.4,1.1-12.5c0-39.9-32.5-72.4-72.4-72.4c-32.4,0-61.1,21.8-69.8,53.1c-0.6,2.2-2.2,4-4.3,4.9  c-2.1,0.9-4.5,0.7-6.6-0.4c-14.3-8-30.6-12.3-47.1-12.3c-53.2,0-96.5,43.3-96.5,96.5c0,32.9,12.6,61.7,34.6,79.1  c3.2,2.6,3.8,7.3,1.2,10.5c-2.6,3.2-7.3,3.8-10.5,1.2c-25.6-20.3-40.3-53.4-40.3-90.9c0-61.5,50-111.5,111.5-111.5  c16,0,31.9,3.5,46.4,10.1c5.5-14,14.4-26,25.6-35.3l-23-21.4c-3-2.8-3.2-7.6-0.4-10.6c2.8-3,7.6-3.2,10.6-0.4l25.4,23.6  c10.8-6.1,22.9-10,35.7-11.1c0,0,0,0,0,0v-36c0-4.1,3.4-7.5,7.5-7.5s7.5,3.4,7.5,7.5v36c0,0,0,0,0,0c14.2,1.2,27.5,5.9,38.9,13.1  c0.2-0.4,0.5-0.7,0.8-1l23.5-25.5c2.8-3,7.6-3.2,10.6-0.4c3,2.8,3.2,7.6,0.4,10.6l-23.4,25.3c9.4,8.5,17,19,22,30.8h32.6  c4.1,0,7.5,3.4,7.5,7.5s-3.4,7.5-7.5,7.5h-27.8c1.4,6.2,2.1,12.6,2.1,19.2c0,2.2-0.1,4.4-0.3,6.6c44.8,3.7,80.1,41.3,80.1,87.1  C2405.9,795.2,2366.7,834.4,2318.5,834.4z"></path></svg>